<svg xmlns="http://www.w3.org/2000/svg" xmlns:xlink="http://www.w3.org/1999/xlink" fill="none" version="1.1" width="5" height="9" viewBox="0 0 5 9"><g><g><path d="M0.853613,0.14650600000000003L4.85355,4.14645Q4.88837,4.18127,4.91573,4.2222100000000005Q4.94309,4.26316,4.96194,4.30866Q4.98078,4.354150000000001,4.99039,4.40245Q5,4.45075,5,4.5Q5,4.54924,4.99039,4.59754Q4.98078,4.64584,4.96194,4.69134Q4.94309,4.73684,4.91573,4.77778Q4.88837,4.81873,4.85355,4.85355L0.853553,8.85355Q0.783227,8.92388,0.691342,8.96194Q0.5994561,9,0.5,9Q0.4507543,9,0.4024549,8.99039Q0.354155,8.98078,0.308658,8.96194Q0.263161,8.94309,0.222215,8.91573Q0.181269,8.88837,0.146447,8.85355Q0.11162499999999997,8.81873,0.08426499999999998,8.77778Q0.05690600000000001,8.73684,0.03805999999999998,8.69134Q0.019214999999999982,8.64584,0.009606999999999977,8.59754Q0,8.54924,0,8.5Q0,8.40054,0.03805999999999998,8.30866Q0.07612000000000002,8.21677,0.146447,8.14645L0.146634,8.14626L3.79289,4.5L0.14650600000000003,0.853613L0.146447,0.853553Q0.07612000000000002,0.783227,0.03805999999999998,0.691342Q0,0.5994562,0,0.5Q0,0.4507543,0.009606999999999977,0.4024549Q0.019214999999999982,0.354155,0.03805999999999998,0.308658Q0.05690600000000001,0.263161,0.08426499999999998,0.222215Q0.11162499999999997,0.181269,0.146447,0.146447Q0.181269,0.11162499999999997,0.222215,0.08426499999999998Q0.263161,0.05690600000000001,0.308658,0.03805999999999998Q0.354155,0.019214999999999982,0.4024549,0.009606999999999977Q0.4507543,0,0.5,0Q0.5994562,0,0.691342,0.03805999999999998Q0.783227,0.07612000000000002,0.853553,0.146447L0.853613,0.14650600000000003Z" fill-rule="evenodd" fill="#666666" fill-opacity="1"/></g></g></svg>