<svg xmlns="http://www.w3.org/2000/svg" xmlns:xlink="http://www.w3.org/1999/xlink" fill="none" version="1.1" width="12" height="12" viewBox="0 0 12 12"><defs><clipPath id="master_svg0_0_864"><rect x="0" y="0" width="12" height="12" rx="0"/></clipPath></defs><g clip-path="url(#master_svg0_0_864)"><g><path d="M5.9999998807907104,10.99999988079071C3.2385698807907106,10.99999988079071,0.9999998807907104,8.76139988079071,0.9999998807907104,5.9999998807907104C0.9999998807907104,3.2385698807907106,3.2385698807907106,0.9999998807907104,5.9999998807907104,0.9999998807907104C8.76139988079071,0.9999998807907104,10.99999988079071,3.2385698807907106,10.99999988079071,5.9999998807907104C10.99999988079071,8.76139988079071,8.76139988079071,10.99999988079071,5.9999998807907104,10.99999988079071ZM5.9999998807907104,9.99999988079071C8.209149880790712,9.99999988079071,9.99999988079071,8.209149880790712,9.99999988079071,5.9999998807907104C9.99999988079071,3.7908598807907103,8.209149880790712,1.9999998807907104,5.9999998807907104,1.9999998807907104C3.7908598807907103,1.9999998807907104,1.9999998807907104,3.7908598807907103,1.9999998807907104,5.9999998807907104C1.9999998807907104,8.209149880790712,3.7908598807907103,9.99999988079071,5.9999998807907104,9.99999988079071ZM6.4999998807907104,5.9999998807907104C6.4999998807907104,5.9999998807907104,8.49999988079071,5.9999998807907104,8.49999988079071,5.9999998807907104C8.49999988079071,5.9999998807907104,8.49999988079071,6.9999998807907104,8.49999988079071,6.9999998807907104C8.49999988079071,6.9999998807907104,5.4999998807907104,6.9999998807907104,5.4999998807907104,6.9999998807907104C5.4999998807907104,6.9999998807907104,5.4999998807907104,3.4999998807907104,5.4999998807907104,3.4999998807907104C5.4999998807907104,3.4999998807907104,6.4999998807907104,3.4999998807907104,6.4999998807907104,3.4999998807907104C6.4999998807907104,3.4999998807907104,6.4999998807907104,5.9999998807907104,6.4999998807907104,5.9999998807907104Z" fill="#999999" fill-opacity="1"/></g></g></svg>