<svg xmlns="http://www.w3.org/2000/svg" xmlns:xlink="http://www.w3.org/1999/xlink" fill="none" version="1.1" width="18" height="18" viewBox="0 0 18 18"><defs><clipPath id="master_svg0_0_1898"><rect x="0" y="0" width="18" height="18" rx="0"/></clipPath></defs><g clip-path="url(#master_svg0_0_1898)"><g><path d="M1.5,6.74531C1.5,4.26262,3.5074,2.25,6.00049,2.25C6.00049,2.25,11.9995,2.25,11.9995,2.25C14.4851,2.25,16.5,4.27109,16.5,6.74531C16.5,6.74531,16.5,15.75,16.5,15.75C16.5,15.75,6.00049,15.75,6.00049,15.75C3.51494,15.75,1.5,13.7289,1.5,11.25472C1.5,11.25472,1.5,6.74531,1.5,6.74531ZM15,14.25C15,14.25,15,6.74531,15,6.74531C15,5.09654,13.6537,3.75,11.9995,3.75C11.9995,3.75,6.00049,3.75,6.00049,3.75C4.33843,3.75,3,5.08843,3,6.74531C3,6.74531,3,11.25472,3,11.25472C3,12.9035,4.34634,14.25,6.00049,14.25C6.00049,14.25,15,14.25,15,14.25ZM10.5,8.25C10.5,8.25,12,8.25,12,8.25C12,8.25,12,9.75,12,9.75C12,9.75,10.5,9.75,10.5,9.75C10.5,9.75,10.5,8.25,10.5,8.25ZM6,8.25C6,8.25,7.5,8.25,7.5,8.25C7.5,8.25,7.5,9.75,7.5,9.75C7.5,9.75,6,9.75,6,9.75C6,9.75,6,8.25,6,8.25Z" fill="#000000" fill-opacity="1"/></g></g></svg>