<svg xmlns="http://www.w3.org/2000/svg" xmlns:xlink="http://www.w3.org/1999/xlink" fill="none" version="1.1" width="18" height="18" viewBox="0 0 18 18"><defs><clipPath id="master_svg0_0_1895"><rect x="0" y="0" width="18" height="18" rx="0"/></clipPath></defs><g clip-path="url(#master_svg0_0_1895)"><g><path d="M9.000751192092896,3.3963995231628417C10.762501192092895,1.8150005231628419,13.485001192092895,1.8674995231628417,15.181901192092896,3.5680195231628415C16.879001192092893,5.268539523162842,16.937201192092896,7.977749523162842,15.358901192092896,9.744749523162842C15.358901192092896,9.744749523162842,8.999921192092895,16.11379952316284,8.999921192092895,16.11379952316284C8.999921192092895,16.11379952316284,2.6410311920928953,9.744749523162842,2.6410311920928953,9.744749523162842C1.0627871920928955,7.977749523162842,1.1217821920928954,5.264259523162842,2.8180211920928953,3.5680195231628415C4.516181192092896,1.8698625231628418,7.233891192092895,1.8126525231628419,9.000751192092896,3.3963995231628417ZM14.120201192092896,4.627579523162842C12.995901192092896,3.500959523162842,11.180701192092895,3.455259523162842,10.002751192092896,4.512649523162842C10.002751192092896,4.512649523162842,9.001421192092895,5.411429523162842,9.001421192092895,5.411429523162842C9.001421192092895,5.411429523162842,7.999571192092896,4.513359523162842,7.999571192092896,4.513359523162842C6.818231192092895,3.454479523162842,5.006291192092895,3.5010595231628416,3.8786811920928956,4.628679523162842C2.761371192092896,5.745979523162841,2.7052811920928956,7.5354795231628415,3.7349511920928955,8.717399523162841C3.7349511920928955,8.717399523162841,8.999921192092895,13.990699523162842,8.999921192092895,13.990699523162842C8.999921192092895,13.990699523162842,14.265101192092896,8.717399523162841,14.265101192092896,8.717399523162841C15.295101192092895,7.535029523162842,15.239201192092896,5.748939523162842,14.120201192092896,4.627579523162842Z" fill="#000000" fill-opacity="1"/></g></g></svg>