<svg xmlns="http://www.w3.org/2000/svg" xmlns:xlink="http://www.w3.org/1999/xlink" fill="none" version="1.1" width="8" height="14" viewBox="0 0 8 14"><g><path d="M1.707226,0.29301200000000005L7.70711,6.29289Q7.84776,6.43355,7.92388,6.61732Q8,6.80109,8,7Q8,7.19891,7.92388,7.38268Q7.84776,7.56645,7.70711,7.70711L1.708009,13.7062L1.7071070000000002,13.7071Q1.566455,13.8478,1.382684,13.9239Q1.1989130000000001,14,1,14Q0.9015086,14,0.80491,13.9808Q0.708311,13.9616,0.617317,13.9239Q0.526322,13.8862,0.44443,13.8315Q0.362537,13.7767,0.29289299999999996,13.7071Q0.22324900000000003,13.6375,0.16852999999999996,13.5556Q0.11381200000000002,13.4737,0.076121,13.3827Q0.038429999999999964,13.2917,0.019214999999999982,13.1951Q0,13.0985,0,13Q0,12.8011,0.07611999999999997,12.6173Q0.15224099999999996,12.4335,0.29289299999999996,12.2929L0.293268,12.2925L5.58579,7L0.29301200000000005,1.707226L0.29289299999999996,1.7071070000000002Q0.15224099999999996,1.566455,0.07611999999999997,1.382683Q0,1.198912,0,1Q0,0.9015086,0.019214999999999982,0.80491Q0.038429999999999964,0.708311,0.076121,0.617317Q0.11381200000000002,0.526322,0.16852999999999996,0.44443Q0.22324900000000003,0.362537,0.29289299999999996,0.29289299999999996Q0.362537,0.22324900000000003,0.44443,0.16852999999999996Q0.526322,0.11381200000000002,0.617317,0.076121Q0.708311,0.038429999999999964,0.80491,0.019214999999999982Q0.9015086,0,1,0Q1.198912,0,1.382683,0.07611999999999997Q1.566455,0.15224099999999996,1.7071070000000002,0.29289299999999996L1.707226,0.29301200000000005Z" fill-rule="evenodd" fill="#2C5B37" fill-opacity="1"/></g></svg>