<svg xmlns="http://www.w3.org/2000/svg" xmlns:xlink="http://www.w3.org/1999/xlink" fill="none" version="1.1" width="16" height="16" viewBox="0 0 16 16"><defs><clipPath id="master_svg0_0_2966"><rect x="0" y="0" width="16" height="16" rx="0"/></clipPath></defs><g clip-path="url(#master_svg0_0_2966)"><g><path d="M13.495034445953369,3.171569523162842C15.003534445953369,4.683149523162841,15.055334445953369,7.091329523162842,13.65243444595337,8.66199952316284C13.65243444595337,8.66199952316284,7.999934445953369,14.323299523162841,7.999934445953369,14.323299523162841C7.999934445953369,14.323299523162841,2.3475844459533692,8.66199952316284,2.3475844459533692,8.66199952316284C0.9446994459533691,7.091329523162842,0.9971394459533691,4.679339523162842,2.504904445953369,3.171569523162842C4.014384445953369,1.662099523162842,6.4301244459533695,1.611246523162842,8.000664445953369,3.019019523162842C9.56666444595337,1.6133335231628418,11.986634445953369,1.6599995231628417,13.495034445953369,3.171569523162842ZM3.4477144459533693,4.114379523162842C2.4545544459533692,5.107539523162842,2.4046944459533695,6.698199523162842,3.3199544459533694,7.748799523162842C3.3199544459533694,7.748799523162842,7.999934445953369,12.436199523162841,7.999934445953369,12.436199523162841C7.999934445953369,12.436199523162841,12.68003444595337,7.748799523162842,12.68003444595337,7.748799523162842C13.595634445953369,6.697799523162842,13.546034445953369,5.110169523162842,12.55133444595337,4.113399523162842C11.559834445953369,3.119859523162842,9.96386444595337,3.072039523162842,8.916204445953369,3.989169523162842C8.916204445953369,3.989169523162842,6.114384445953369,6.791269523162842,6.114384445953369,6.791269523162842C6.114384445953369,6.791269523162842,5.171574445953369,5.848429523162842,5.171574445953369,5.848429523162842C5.171574445953369,5.848429523162842,7.054664445953369,3.9639995231628418,7.054664445953369,3.9639995231628418C7.054664445953369,3.9639995231628418,7.000134445953369,3.9180095231628416,7.000134445953369,3.9180095231628416C5.950304445953369,3.074649523162842,4.4154844459533695,3.1466195231628418,3.4477144459533693,4.114379523162842Z" fill="#000000" fill-opacity="1"/></g></g></svg>