<svg xmlns="http://www.w3.org/2000/svg" xmlns:xlink="http://www.w3.org/1999/xlink" fill="none" version="1.1" width="16" height="16" viewBox="0 0 16 16"><defs><clipPath id="master_svg0_0_2977"><rect x="0" y="0" width="16" height="16" rx="0"/></clipPath></defs><g clip-path="url(#master_svg0_0_2977)"><g><path d="M3.6666666865348816,8.000131192092896C3.6666666865348816,8.000131192092896,2.6666666865348816,8.000131192092896,2.6666666865348816,8.000131192092896C2.6666666865348816,8.000131192092896,2.6666666865348816,4.6668311920928955,2.6666666865348816,4.6668311920928955C2.6666666865348816,4.6668311920928955,1.3333336865348815,4.6668311920928955,1.3333336865348815,4.6668311920928955C1.3333336865348815,4.6668311920928955,1.3333336865348815,3.3335011920928954,1.3333336865348815,3.3335011920928954C1.3333336865348815,3.3335011920928954,5.3333366865348815,3.3335011920928954,5.3333366865348815,3.3335011920928954C5.3333366865348815,3.3335011920928954,5.3333366865348815,4.6668311920928955,5.3333366865348815,4.6668311920928955C5.3333366865348815,4.6668311920928955,3.9999966865348817,4.6668311920928955,3.9999966865348817,4.6668311920928955C3.9999966865348817,4.6668311920928955,3.9999966865348817,6.530481192092895,3.9999966865348817,6.530481192092895C3.9999966865348817,6.530481192092895,10.542066686534882,4.777551192092895,10.542066686534882,4.777551192092895C10.542066686534882,4.777551192092895,10.155136686534881,3.3335011920928954,10.155136686534881,3.3335011920928954C10.155136686534881,3.3335011920928954,7.999996686534882,3.3335011920928954,7.999996686534882,3.3335011920928954C7.999996686534882,3.3335011920928954,7.999996686534882,2.0001667520928956,7.999996686534882,2.0001667520928956C7.999996686534882,2.0001667520928956,10.652266686534881,2.0001667520928956,10.652266686534881,2.0001667520928956C10.952366686534882,1.9934534220928954,11.229466686534881,2.1914531920928955,11.310566686534882,2.4942871920928953C11.310566686534882,2.4942871920928953,12.345866686534881,6.3579911920928955,12.345866686534881,6.3579911920928955C12.345866686534881,6.3579911920928955,11.057966686534881,6.703071192092896,11.057966686534881,6.703071192092896C11.057966686534881,6.703071192092896,10.887166686534881,6.065451192092896,10.887166686534881,6.065451192092896C10.887166686534881,6.065451192092896,3.6666666865348816,8.000131192092896,3.6666666865348816,8.000131192092896ZM3.3333366865348815,12.666801192092896C4.069716686534882,12.666801192092896,4.666666686534882,12.069901192092896,4.666666686534882,11.333471192092896C4.666666686534882,10.597131192092895,4.069716686534882,10.000131192092896,3.3333366865348815,10.000131192092896C2.596956686534882,10.000131192092896,1.9999966865348815,10.597131192092895,1.9999966865348815,11.333471192092896C1.9999966865348815,12.069901192092896,2.596956686534882,12.666801192092896,3.3333366865348815,12.666801192092896ZM3.3333366865348815,14.000101192092895C1.8605766865348816,14.000101192092895,0.6666666865348816,12.806301192092896,0.6666666865348816,11.333471192092896C0.6666666865348816,9.860731192092896,1.8605766865348816,8.666801192092896,3.3333366865348815,8.666801192092896C4.8060966865348815,8.666801192092896,5.999996686534882,9.860731192092896,5.999996686534882,11.333471192092896C5.999996686534882,12.806301192092896,4.8060966865348815,14.000101192092895,3.3333366865348815,14.000101192092895ZM11.999966686534881,12.666801192092896C13.104566686534882,12.666801192092896,13.999966686534881,11.771401192092895,13.999966686534881,10.666801192092896C13.999966686534881,9.562271192092895,13.104566686534882,8.666801192092896,11.999966686534881,8.666801192092896C10.895366686534881,8.666801192092896,9.999996686534882,9.562271192092895,9.999996686534882,10.666801192092896C9.999996686534882,11.771401192092895,10.895366686534881,12.666801192092896,11.999966686534881,12.666801192092896ZM11.999966686534881,14.000101192092895C10.159066686534882,14.000101192092895,8.666666686534882,12.507801192092895,8.666666686534882,10.666801192092896C8.666666686534882,8.825871192092896,10.159066686534882,7.333471192092896,11.999966686534881,7.333471192092896C13.840966686534882,7.333471192092896,15.333366686534882,8.825871192092896,15.333366686534882,10.666801192092896C15.333366686534882,12.507801192092895,13.840966686534882,14.000101192092895,11.999966686534881,14.000101192092895Z" fill="#000000" fill-opacity="1"/></g></g></svg>