<svg xmlns="http://www.w3.org/2000/svg" xmlns:xlink="http://www.w3.org/1999/xlink" fill="none" version="1.1" width="24" height="24" viewBox="0 0 24 24"><defs><clipPath id="master_svg0_0_3007"><rect x="0" y="0" width="24" height="24" rx="0"/></clipPath></defs><g clip-path="url(#master_svg0_0_3007)"><g><path d="M20,2C20.5523,2,21,2.44772,21,3C21,3,21,6.757,21,6.757C21,6.757,19,8.757,19,8.757C19,8.757,19,4,19,4C19,4,5,4,5,4C5,4,5,20,5,20C5,20,19,20,19,20C19,20,19,17.242,19,17.242C19,17.242,21,15.242,21,15.242C21,15.242,21,21,21,21C21,21.5523,20.5523,22,20,22C20,22,4,22,4,22C3.44772,22,3,21.5523,3,21C3,21,3,3,3,3C3,2.44772,3.44772,2,4,2C4,2,20,2,20,2ZM21.7782,8.80761C21.7782,8.80761,23.1924,10.2218,23.1924,10.2218C23.1924,10.2218,15.4142,18,15.4142,18C15.4142,18,13.9979,17.9979,13.9979,17.9979C13.9979,17.9979,14,16.5858,14,16.5858C14,16.5858,21.7782,8.80761,21.7782,8.80761Z" fill="#000000" fill-opacity="1"/></g><g><path d="M8,10L16,10L16,8L8,8L8,10ZM8,14L13,14L13,12L8,12L8,14Z" fill="#3BCDA1" fill-opacity="1"/></g></g></svg>