<svg xmlns="http://www.w3.org/2000/svg" xmlns:xlink="http://www.w3.org/1999/xlink" fill="none" version="1.1" width="24" height="24" viewBox="0 0 24 24"><defs><clipPath id="master_svg0_0_2999"><rect x="0" y="0" width="24" height="24" rx="0"/></clipPath></defs><g clip-path="url(#master_svg0_0_2999)"><g><path d="M21,4C21,4,7,4,7,4C5.89543,4,5,4.89543,5,6C5,7.10457,5.89543,8,7,8C7,8,21,8,21,8C21,8,21,21,21,21C21,21.5523,20.5523,22,20,22C20,22,7,22,7,22C4.79086,22,3,20.2091,3,18C3,18,3,6,3,6C3,3.79086,4.79086,2,7,2C7,2,20,2,20,2C20.5523,2,21,2.44772,21,3C21,3,21,4,21,4ZM5,18C5,19.1046,5.89543,20,7,20C7,20,19,20,19,20C19,20,19,10,19,10C19,10,7,10,7,10C6.2714300000000005,10,5.58835,9.805209999999999,5,9.464870000000001C5,9.464870000000001,5,18,5,18Z" fill="#000000" fill-opacity="1"/></g><g><path d="M20,7C20,7,7,7,7,7C6.44772,7,6,6.55228,6,6C6,5.44772,6.44772,5,7,5C7,5,20,5,20,5C20,5,20,7,20,7Z" fill="#3BCDA1" fill-opacity="1"/></g></g></svg>