<svg xmlns="http://www.w3.org/2000/svg" xmlns:xlink="http://www.w3.org/1999/xlink" fill="none" version="1.1" width="16" height="16" viewBox="0 0 16 16"><defs><clipPath id="master_svg0_0_2982"><rect x="0" y="0" width="16" height="16" rx="0"/></clipPath></defs><g clip-path="url(#master_svg0_0_2982)"><g><path d="M8.000200019302369,2C11.594960019302368,2,14.585560019302369,4.5865100000000005,15.212560019302368,8C14.585560019302369,11.41347,11.594960019302368,14,8.000200019302369,14C4.4054100193023675,14,1.414767019302368,11.41347,0.7877600193023682,8C1.414767019302368,4.5865100000000005,4.4054100193023675,2,8.000200019302369,2ZM8.000200019302369,12.6667C10.823960019302367,12.6667,13.240160019302369,10.70133,13.851760019302368,8C13.240160019302369,5.298690000000001,10.823960019302367,3.33333,8.000200019302369,3.33333C5.176400019302368,3.33333,2.760150019302368,5.298690000000001,2.148520019302368,8C2.760150019302368,10.70133,5.176400019302368,12.6667,8.000200019302369,12.6667ZM8.000200019302369,11C6.343320019302368,11,5.000170019302368,9.65687,5.000170019302368,8C5.000170019302368,6.34315,6.343320019302368,5,8.000200019302369,5C9.657000019302368,5,11.000160019302369,6.34315,11.000160019302369,8C11.000160019302369,9.65687,9.657000019302368,11,8.000200019302369,11ZM8.000200019302369,9.66667C8.920670019302369,9.66667,9.666870019302369,8.92047,9.666870019302369,8C9.666870019302369,7.07953,8.920670019302369,6.33333,8.000200019302369,6.33333C7.079730019302368,6.33333,6.333510019302368,7.07953,6.333510019302368,8C6.333510019302368,8.92047,7.079730019302368,9.66667,8.000200019302369,9.66667Z" fill="#000000" fill-opacity="1"/></g></g></svg>