<svg xmlns="http://www.w3.org/2000/svg" xmlns:xlink="http://www.w3.org/1999/xlink" fill="none" version="1.1" width="24" height="24" viewBox="0 0 24 24"><defs><clipPath id="master_svg0_0_3003"><rect x="0" y="0" width="24" height="24" rx="0"/></clipPath></defs><g clip-path="url(#master_svg0_0_3003)"><g><path d="M19,4C19,4,5,4,5,4C5,4,5,20,5,20C5,20,19,20,19,20C19,20,19,4,19,4ZM3,2.9918C3,2.44405,3.44749,2,3.9985,2C3.9985,2,19.9997,2,19.9997,2C20.5519,2,20.9996,2.44772,20.9997,3C20.9997,3,21,20.9925,21,20.9925C21,21.5489,20.5551,22,20.0066,22C20.0066,22,3.9934,22,3.9934,22C3.44476,22,3,21.5447,3,21.0082C3,21.0082,3,2.9918,3,2.9918Z" fill="#000000" fill-opacity="1"/></g><g><path d="M11.29289859375,13.121297368164061C11.29289859375,13.121297368164061,15.53549859375,8.878677368164062,15.53549859375,8.878677368164062C15.53549859375,8.878677368164062,16.94969859375,10.292897368164063,16.94969859375,10.292897368164063C16.94969859375,10.292897368164063,11.29289859375,15.949697368164063,11.29289859375,15.949697368164063C11.29289859375,15.949697368164063,7.40380859375,12.060697368164062,7.40380859375,12.060697368164062C7.40380859375,12.060697368164062,8.81801859375,10.646397368164063,8.81801859375,10.646397368164063C8.81801859375,10.646397368164063,11.29289859375,13.121297368164061,11.29289859375,13.121297368164061Z" fill="#3BCDA1" fill-opacity="1"/></g></g></svg>