<svg xmlns="http://www.w3.org/2000/svg" xmlns:xlink="http://www.w3.org/1999/xlink" fill="none" version="1.1" width="16" height="16" viewBox="0 0 16 16"><defs><clipPath id="master_svg0_0_2987"><rect x="0" y="0" width="16" height="16" rx="0"/></clipPath></defs><g clip-path="url(#master_svg0_0_2987)"><g><path d="M9.333336746139526,9.50133668653488C9.333336746139526,9.50133668653488,9.333336746139526,10.894266686534882,9.333336746139526,10.894266686534882C8.916266746139527,10.746866686534881,8.467536746139526,10.666666686534882,7.9999967461395265,10.666666686534882C5.790856746139527,10.666666686534882,3.9999967461395265,12.457566686534882,3.9999967461395265,14.666666686534882C3.9999967461395265,14.666666686534882,2.6666667461395264,14.666666686534882,2.6666667461395264,14.666666686534882C2.6666667461395264,11.721166686534882,5.054476746139526,9.333336686534881,7.9999967461395265,9.333336686534881C8.460396746139526,9.333336686534881,8.907196746139526,9.391666686534881,9.333336746139526,9.50133668653488ZM7.9999967461395265,8.666666686534882C5.7899967461395265,8.666666686534882,3.9999967461395265,6.876666686534882,3.9999967461395265,4.666666686534882C3.9999967461395265,2.4566666865348816,5.7899967461395265,0.6666666865348816,7.9999967461395265,0.6666666865348816C10.209996746139527,0.6666666865348816,11.999996746139526,2.4566666865348816,11.999996746139526,4.666666686534882C11.999996746139526,6.876666686534882,10.209996746139527,8.666666686534882,7.9999967461395265,8.666666686534882ZM7.9999967461395265,7.3333366865348815C9.473336746139527,7.3333366865348815,10.666666746139526,6.139996686534881,10.666666746139526,4.666666686534882C10.666666746139526,3.193336686534882,9.473336746139527,1.9999966865348815,7.9999967461395265,1.9999966865348815C6.526666746139526,1.9999966865348815,5.333336746139526,3.193336686534882,5.333336746139526,4.666666686534882C5.333336746139526,6.139996686534881,6.526666746139526,7.3333366865348815,7.9999967461395265,7.3333366865348815ZM11.999996746139526,11.333366686534882C11.999996746139526,11.333366686534882,11.999996746139526,9.333336686534881,11.999996746139526,9.333336686534881C11.999996746139526,9.333336686534881,13.333366746139527,9.333336686534881,13.333366746139527,9.333336686534881C13.333366746139527,9.333336686534881,13.333366746139527,11.333366686534882,13.333366746139527,11.333366686534882C13.333366746139527,11.333366686534882,15.333366746139527,11.333366686534882,15.333366746139527,11.333366686534882C15.333366746139527,11.333366686534882,15.333366746139527,12.666666686534882,15.333366746139527,12.666666686534882C15.333366746139527,12.666666686534882,13.333366746139527,12.666666686534882,13.333366746139527,12.666666686534882C13.333366746139527,12.666666686534882,13.333366746139527,14.666666686534882,13.333366746139527,14.666666686534882C13.333366746139527,14.666666686534882,11.999996746139526,14.666666686534882,11.999996746139526,14.666666686534882C11.999996746139526,14.666666686534882,11.999996746139526,12.666666686534882,11.999996746139526,12.666666686534882C11.999996746139526,12.666666686534882,9.999996746139526,12.666666686534882,9.999996746139526,12.666666686534882C9.999996746139526,12.666666686534882,9.999996746139526,11.333366686534882,9.999996746139526,11.333366686534882C9.999996746139526,11.333366686534882,11.999996746139526,11.333366686534882,11.999996746139526,11.333366686534882Z" fill="#000000" fill-opacity="1"/></g></g></svg>