<svg xmlns="http://www.w3.org/2000/svg" xmlns:xlink="http://www.w3.org/1999/xlink" fill="none" version="1.1" width="13" height="9" viewBox="0 0 13 9"><g><path d="M12.8448,0.862069Q12.9191,0.79129,12.9596,0.69696Q13,0.602629,13,0.5Q13,0.4507543,12.9904,0.4024549Q12.9808,0.354155,12.9619,0.308658Q12.9431,0.263161,12.9157,0.222215Q12.8884,0.181269,12.8536,0.146447Q12.8187,0.11162499999999997,12.7778,0.08426499999999998Q12.7368,0.05690600000000001,12.6913,0.03805999999999998Q12.6458,0.019214999999999982,12.5975,0.009606999999999977Q12.5492,0,12.5,0Q12.4037,0,12.3143,0.035762000000000016Q12.2249,0.071523,12.1552,0.13793100000000003L4.118650000000001,7.79176L0.863406,4.34706Q0.7925690000000001,4.2721,0.697852,4.2312899999999996Q0.603135,4.19048,0.5,4.19048Q0.4507543,4.19048,0.4024549,4.20008Q0.354155,4.20969,0.308658,4.228540000000001Q0.263161,4.24738,0.222215,4.2747399999999995Q0.181269,4.302099999999999,0.146447,4.33692Q0.11162499999999997,4.37174,0.08426499999999998,4.41269Q0.05690600000000001,4.45364,0.03805999999999998,4.49913Q0.019214999999999982,4.54463,0.009606999999999977,4.59293Q0,4.64123,0,4.69048Q0,4.78626,0.03540199999999999,4.87527Q0.07080399999999998,4.96428,0.136594,5.0339L4.0813500000000005,9.20824L12.8448,0.862069L12.8448,0.862069Z" fill-rule="evenodd" fill="#36D1A1" fill-opacity="1"/></g></svg>